<!-- icon666.com - MILLIONS vector ICONS FREE --><svg id="Capa_1" enable-background="new 0 0 512 512" viewBox="0 0 512 512" xmlns="http://www.w3.org/2000/svg"><g><g><path d="m374.254 40.851c4.963 0 9 4.038 9 9v231.69l.895.095c1.499.159 2.899.236 4.279.236h28.956v-264.372c0-5.523-4.477-10-10-10h-307.21c-5.523 0-10 4.477-10 10v23.351z" fill="#26a6fe"></path></g><g><path d="m407.384 7.5h-41.384c5.523 0 10 4.477 10 10v23.524c4.13.816 7.254 4.462 7.254 8.827v231.69l.895.095c1.499.159 2.899.236 4.279.236h28.956v-264.372c0-5.523-4.478-10-10-10z" fill="#0593fc"></path></g><g><path d="m288.989 446.319c-17.689-15.094-27.834-37.087-27.834-60.341v-78.207c0-14.281 11.618-25.899 25.899-25.899h39.628c11.928 0 23.11-5.208 30.873-14.334 6.848 8.052 16.361 13.048 26.698 14.114v-231.801c0-5.523-4.477-10-10-10h-307.208c-5.523 0-10 4.477-10 10v407.251c0 5.523 4.477 10 10 10h246.298z" fill="#dff6fd"></path></g><g><path d="m374.254 39.851h-37c5.523 0 10 4.477 10 10v226.373c3.836-2.272 7.323-5.184 10.302-8.686 6.848 8.052 16.361 13.048 26.698 14.114v-231.801c0-5.523-4.477-10-10-10z" fill="#c8effe"></path></g><g><g><path d="m95.404 115.707h248.124v126.591h-248.124z" fill="#fff"></path></g><g><path d="m312.125 115.707h31.404v126.591h-31.404z" fill="#f9f3f1"></path></g><g><path d="m95.404 115.707v-30.697c0-2.761 2.239-5 5-5h238.124c2.761 0 5 2.239 5 5v30.697z" fill="#fd8087"></path></g><g><path d="m338.528 80.01h-31.404c2.761 0 5 2.239 5 5v30.697h31.404v-30.697c0-2.761-2.238-5-5-5z" fill="#fe646f"></path></g></g><g><g><path d="m388.428 280.872c-12.454 0-23.605-5.838-30.872-14.905-7.267 9.067-18.418 14.905-30.872 14.905h-39.629c-14.856 0-26.899 12.043-26.899 26.899v78.207c0 23.511 10.3 45.841 28.184 61.102l65.821 56.168c1.956 1.669 4.835 1.669 6.79 0l65.821-56.168c17.884-15.261 28.184-37.592 28.184-61.102v-78.207c0-14.856-12.043-26.899-26.899-26.899z" fill="#05e39c"></path></g><g><g><path d="m428.056 280.872h-31.155c14.856 0 26.899 12.043 26.899 26.899v78.207c0 23.51-10.3 45.841-28.184 61.102l-53.638 45.772 12.183 10.396c1.956 1.669 4.834 1.669 6.79 0l65.821-56.168c17.884-15.261 28.184-37.592 28.184-61.102v-78.207c-.001-14.856-12.044-26.899-26.9-26.899z" fill="#0ed290"></path></g></g><g><g><circle cx="357.555" cy="373.386" fill="#fff" r="62.614"></circle></g><g><path d="m357.555 310.771c-5.381 0-10.602.68-15.585 1.957 27.041 6.927 47.03 31.457 47.03 60.658 0 29.2-19.989 53.731-47.03 60.658 4.983 1.276 10.204 1.957 15.585 1.957 34.581 0 62.614-28.033 62.614-62.614 0-34.582-28.033-62.616-62.614-62.616z" fill="#f9f3f1"></path></g></g></g><g><path d="m95.404 249.798h248.124c4.143 0 7.5-3.358 7.5-7.5v-157.288c0-6.893-5.607-12.5-12.5-12.5h-238.124c-6.893 0-12.5 5.607-12.5 12.5v157.288c0 4.142 3.358 7.5 7.5 7.5zm240.624-15h-156.861v-27.197h156.861zm0-42.197h-156.861v-27.197h156.861zm0-42.197h-156.861v-27.197h156.861zm-233.124-62.894h233.124v20.697h-233.124zm0 35.697h61.263v27.197h-61.263zm0 42.197h61.263v27.197h-61.263zm0 42.197h61.263v27.197h-61.263z"></path><path d="m428.057 273.354h-3.173v-255.854c0-9.649-7.851-17.5-17.5-17.5h-307.21c-9.649 0-17.5 7.851-17.5 17.5v14.851h-15.629c-9.649 0-17.5 7.851-17.5 17.5v407.251c0 9.649 7.851 17.5 17.5 17.5h34.955c4.143 0 7.5-3.358 7.5-7.5s-3.357-7.5-7.5-7.5h-34.955c-1.379 0-2.5-1.122-2.5-2.5v-407.251c0-1.378 1.121-2.5 2.5-2.5h230.955c4.143 0 7.5-3.358 7.5-7.5s-3.357-7.5-7.5-7.5h-200.326v-14.851c0-1.378 1.121-2.5 2.5-2.5h307.21c1.379 0 2.5 1.122 2.5 2.5v255.854h-18.13v-223.503c0-9.649-7.851-17.5-17.5-17.5h-41.254c-4.143 0-7.5 3.358-7.5 7.5s3.357 7.5 7.5 7.5h41.254c1.379 0 2.5 1.122 2.5 2.5v221.281c-5.145-2.028-9.751-5.387-13.347-9.872-1.424-1.776-3.577-2.81-5.853-2.81s-4.429 1.034-5.853 2.81c-6.16 7.687-15.279 12.095-25.02 12.095h-39.629c-18.968 0-34.398 15.431-34.398 34.399v15.229c0 4.142 3.357 7.5 7.5 7.5s7.5-3.358 7.5-7.5v-15.229c0-10.697 8.702-19.399 19.398-19.399h39.629c11.479 0 22.359-4.15 30.872-11.599 8.514 7.449 19.394 11.599 30.873 11.599h39.629c10.696 0 19.398 8.702 19.398 19.399v78.207c0 21.348-9.313 41.54-25.552 55.397l-64.348 54.911-64.349-54.911c-16.238-13.857-25.552-34.049-25.552-55.397v-27.978c0-4.142-3.357-7.5-7.5-7.5s-7.5 3.358-7.5 7.5v27.978c0 25.745 11.231 50.096 30.815 66.807l8.008 6.834h-154.475c-4.143 0-7.5 3.358-7.5 7.5s3.357 7.5 7.5 7.5h172.057l40.235 34.334c2.395 2.042 5.328 3.064 8.263 3.064s5.87-1.021 8.264-3.064l65.821-56.168c19.584-16.711 30.815-41.062 30.815-66.807v-78.207c0-18.968-15.431-34.4-34.398-34.4z"></path><path d="m357.556 443.5c38.661 0 70.114-31.453 70.114-70.114s-31.453-70.114-70.114-70.114-70.114 31.453-70.114 70.114 31.453 70.114 70.114 70.114zm0-125.229c30.39 0 55.114 24.724 55.114 55.114s-24.725 55.115-55.114 55.115-55.114-24.724-55.114-55.114 24.724-55.115 55.114-55.115z"></path><path d="m345.827 399.769c1.407 1.407 3.314 2.197 5.304 2.197s3.896-.79 5.304-2.197l40.328-40.328c2.929-2.929 2.929-7.678 0-10.606-2.929-2.929-7.677-2.929-10.607 0l-35.024 35.024-18.839-18.84c-2.929-2.929-7.677-2.93-10.607 0-2.929 2.929-2.929 7.678 0 10.606z"></path><path d="m95.404 424.402h79.491c4.143 0 7.5-3.358 7.5-7.5s-3.357-7.5-7.5-7.5h-79.491c-4.143 0-7.5 3.358-7.5 7.5s3.358 7.5 7.5 7.5z"></path><path d="m228.918 409.402h-24.311c-4.143 0-7.5 3.358-7.5 7.5s3.357 7.5 7.5 7.5h24.311c4.143 0 7.5-3.358 7.5-7.5s-3.357-7.5-7.5-7.5z"></path><path d="m95.404 392.224h133.514c4.143 0 7.5-3.358 7.5-7.5s-3.357-7.5-7.5-7.5h-133.514c-4.143 0-7.5 3.358-7.5 7.5s3.358 7.5 7.5 7.5z"></path><path d="m95.404 359.006h133.514c4.143 0 7.5-3.358 7.5-7.5s-3.357-7.5-7.5-7.5h-3.318v-25.198c0-4.142-3.357-7.5-7.5-7.5s-7.5 3.358-7.5 7.5v25.198h-22.292v-70.299c0-4.142-3.357-7.5-7.5-7.5s-7.5 3.358-7.5 7.5v70.299h-22.293v-36.474c0-4.142-3.357-7.5-7.5-7.5s-7.5 3.358-7.5 7.5v36.474h-22.293v-47.749c0-4.142-3.357-7.5-7.5-7.5s-7.5 3.358-7.5 7.5v47.749h-3.317c-4.143 0-7.5 3.358-7.5 7.5s3.357 7.5 7.499 7.5z"></path></g></g></svg>