<!-- icon666.com - MILLIONS vector ICONS FREE --><svg version="1.1" id="Capa_1" xmlns="http://www.w3.org/2000/svg" xmlns:xlink="http://www.w3.org/1999/xlink" x="0px" y="0px" viewBox="0 0 496.485 496.485" style="enable-background:new 0 0 496.485 496.485;" xml:space="preserve"><circle style="fill:#FDBF5E;" cx="177.648" cy="169.891" r="169.891"></circle><path style="fill:#FFFFFF;" d="M177.648,449.939c0,21.721-17.842,39.564-39.564,39.564h303.321 c21.721,0,39.564-17.842,39.564-39.564c0-21.721-17.842-39.564-39.564-39.564H138.085 C160.582,411.152,177.648,428.218,177.648,449.939z"></path><path style="fill:#193651;" d="M442.182,403.394H138.861c-3.879,0-6.982,3.879-6.982,7.758s3.103,6.982,6.982,6.982 c17.842,0,31.806,13.964,31.806,31.806c0,17.842-13.964,31.806-31.806,31.806c-3.879,0-6.982,3.103-6.982,6.982 s3.103,6.982,6.982,6.982l303.321,0.776c25.6,0,46.545-20.945,46.545-46.545C488.727,424.339,467.782,403.394,442.182,403.394z M442.182,481.745H172.218c7.758-8.533,12.412-19.394,12.412-31.806c0-12.412-4.655-23.273-12.412-31.806h269.964 c17.842,0,31.806,13.964,31.806,31.806C473.988,467.782,460.024,481.745,442.182,481.745z"></path><rect x="107.83" y="110.158" style="fill:#FFFFFF;" width="274.618" height="300.218"></rect><path style="fill:#193651;" d="M107.83,418.133c-1.552,0-3.879-0.776-5.43-2.327c-0.776-1.552-1.552-3.103-1.552-4.655V110.158 c0-3.879,3.103-6.982,6.982-6.982h274.618c1.552,0,3.879,0.776,5.43,2.327c1.552,1.552,2.327,3.103,2.327,5.43v300.218 c0,3.879-3.103,6.982-6.982,6.982H107.83z M115.588,117.915v285.479h259.879V117.915H115.588z"></path><rect x="137.309" y="139.636" style="fill:#E1E6E9;" width="216.436" height="242.812"></rect><path style="fill:#4FBF9F;" d="M442.182,110.158h-59.733v300.994h59.733c21.721,0,39.564,17.842,39.564,39.564V149.721 C481.745,128,463.903,110.158,442.182,110.158z"></path><path style="fill:#193651;" d="M442.182,103.176h-59.733c-3.879,0-6.982,3.103-6.982,6.982v300.994c0,3.879,3.103,6.982,6.982,6.982 h59.733c17.842,0,31.806,13.964,31.806,31.806c0,3.879,3.103,6.982,6.982,6.982c3.879,0,6.982-3.103,6.982-6.982V149.721 C488.727,124.121,467.782,103.176,442.182,103.176z M473.988,416.582c-8.533-7.758-19.394-12.412-31.806-12.412H389.43V117.915 h52.751c17.842,0,31.806,13.964,31.806,31.806V416.582z"></path><path style="fill:#FFFFFF;" d="M452.267,382.448c-3.103-0.776-6.982-0.776-10.085-0.776h-31.03V139.636h31.03 c5.43,0,10.085,4.655,10.085,10.085V382.448z"></path><path style="fill:#193651;" d="M428.218,456.921h-250.57c-3.879,0-6.982-3.103-6.982-6.982c0-3.879,3.103-6.982,6.982-6.982h250.57 c3.879,0,6.982,3.103,6.982,6.982C435.976,453.818,432.873,456.921,428.218,456.921z"></path><g><rect x="425.115" y="314.182" style="fill:#193651;" width="14.739" height="14.739"></rect><rect x="425.115" y="187.733" style="fill:#193651;" width="14.739" height="14.739"></rect><rect x="425.115" y="229.624" style="fill:#193651;" width="14.739" height="14.739"></rect><rect x="425.115" y="272.291" style="fill:#193651;" width="14.739" height="14.739"></rect></g><path style="fill:#FFFFFF;" d="M307.2,196.267v-52.752h-29.479c-2.327-8.533-6.206-17.842-10.861-25.6l21.721-21.721l-37.236-37.236 l-21.721,21.721c-7.758-4.655-17.067-8.533-25.6-10.861V40.339h-52.752v29.479c-8.533,2.327-17.842,6.206-25.6,10.861 l-20.945-20.945L67.491,96.97l20.945,20.945c-4.655,8.533-8.533,17.067-10.861,25.6H48.873v52.752h29.479 c2.327,8.533,6.206,17.842,10.861,25.6l-20.945,20.945l37.236,37.236l20.945-20.945c7.758,4.655,17.067,8.533,25.6,10.861v29.479 H204.8v-29.479c8.533-2.327,17.842-6.206,25.6-10.861l20.945,20.945l37.236-37.236l-20.945-20.945 c4.655-7.758,8.533-17.067,10.861-25.6H307.2z"></path><path style="fill:#193651;" d="M152.048,306.424c-1.552,0-3.879-0.776-5.43-2.327c-1.552-1.552-2.327-3.103-2.327-5.43v-24.048 c-6.206-1.552-11.636-3.879-17.067-6.982l-17.067,17.067c-1.552,1.552-3.103,2.327-5.43,2.327l0,0c-1.552,0-3.879-0.776-5.43-2.327 l-36.461-36.461c-3.103-3.103-3.103-7.758,0-10.085l17.067-17.067c-3.103-5.43-5.43-11.636-6.982-17.067H48.873 c-3.879,0-6.982-3.103-6.982-6.982v-52.752c0-1.552,0.776-3.879,2.327-5.43c1.552-1.552,3.103-2.327,5.43-2.327h24.048 c1.552-6.206,3.879-11.636,6.982-17.067L63.612,102.4c-3.103-3.103-3.103-7.758,0-10.085l37.236-37.236 c2.327-2.327,7.758-2.327,10.085,0L128,72.145c5.43-3.103,11.636-5.43,17.067-6.982V41.115c0-1.552,0.776-3.879,2.327-5.43 s3.103-2.327,5.43-2.327l0,0h52.752c3.879,0,6.982,3.103,6.982,6.982v24.048c6.206,1.552,11.636,3.879,17.067,6.982l17.067-17.067 c1.552-1.552,3.103-2.327,5.43-2.327l0,0c1.552,0,3.879,0.776,5.43,2.327l37.236,37.236c3.103,3.103,3.103,7.758,0,10.085 l-17.842,17.842c3.103,5.43,5.43,11.636,6.982,17.067h24.048c3.879,0,6.982,3.103,6.982,6.982v52.752 c0,3.879-3.103,6.982-6.982,6.982h-24.048c-1.552,6.206-3.879,11.636-6.982,17.067l17.067,17.067 c1.552,1.552,2.327,3.103,2.327,5.43c0,1.552-0.776,3.879-2.327,5.43L256,285.479c-1.552,1.552-3.103,2.327-5.43,2.327l0,0 c-1.552,0-3.879-0.776-5.43-2.327l-17.067-17.067c-5.43,3.103-11.636,5.43-17.067,6.982v24.048c0,3.879-3.103,6.982-6.982,6.982 H152.048z M126.448,252.121c1.552,0,2.327,0,3.879,0.776c7.758,4.655,15.515,7.758,24.048,10.085c3.103,0.776,5.43,3.879,5.43,6.982 v21.721h38.012v-21.721c0-3.103,2.327-6.206,5.43-6.982c8.533-2.327,16.291-5.43,24.048-10.085c3.103-1.552,6.206-1.552,8.533,0.776 l15.515,15.515l27.152-27.152l-15.515-15.515c-2.327-2.327-3.103-6.206-0.776-8.533c4.655-7.758,7.758-15.515,10.085-24.048 c0.776-3.103,3.879-5.43,6.982-5.43h21.721v-38.012h-21.721c-3.103,0-6.206-2.327-6.982-5.43 c-2.327-8.533-5.43-16.291-10.085-24.048c-1.552-3.103-1.552-6.206,0.776-8.533l17.067-17.067l-27.927-25.6l-17.067,17.067 c-2.327,2.327-6.206,3.103-8.533,0.776c-7.758-4.655-15.515-7.758-24.048-10.085c-3.103-0.776-5.43-3.879-5.43-6.982V48.873H159.03 v21.721c0,3.103-2.327,6.206-5.43,6.982c-8.533,2.327-16.291,5.43-24.048,10.085c-3.103,1.552-6.206,1.552-8.533-0.776 L105.503,71.37L78.351,98.521l15.515,15.515c2.327,2.327,3.103,6.206,0.776,8.533c-4.655,7.758-7.758,15.515-10.085,24.048 c-0.776,3.103-3.879,5.43-6.982,5.43H56.63v38.012h21.721c3.103,0,6.206,2.327,6.982,5.43c2.327,8.533,5.43,16.291,10.085,24.048 c1.552,3.103,1.552,6.206-0.776,8.533l-15.515,15.515l27.152,27.152l15.515-15.515C122.57,252.897,124.121,252.121,126.448,252.121z "></path><circle style="fill:#F16051;" cx="177.648" cy="169.891" r="77.576"></circle><circle style="fill:#FFFFFF;" cx="177.648" cy="169.891" r="27.927"></circle><path style="fill:#193651;" d="M177.648,205.576c-19.394,0-35.685-16.291-35.685-35.685s16.291-35.685,35.685-35.685 s35.685,16.291,35.685,35.685C213.333,190.061,197.818,205.576,177.648,205.576z M177.648,148.945 c-11.636,0-20.945,9.309-20.945,20.945c0,11.636,9.309,20.945,20.945,20.945c11.636,0,20.945-9.309,20.945-20.945 C199.37,159.03,189.285,148.945,177.648,148.945z"></path></svg>