<!-- icon666.com - MILLIONS vector ICONS FREE --><svg id="Layer_1" enable-background="new 0 0 512 512" viewBox="0 0 512 512" xmlns="http://www.w3.org/2000/svg"><g clip-rule="evenodd" fill-rule="evenodd"><g><g><path d="m318.227 252.54h104.222c6.788 0 12.624 3.174 16.313 8.871l40.508 62.558c2.129 3.287 3.121 6.648 3.121 10.563v111.079c-133.705 0-267.41 0-401.115 0v-77.745h236.95v-115.326z" fill="#4fc0e8"></path><path d="m354.087 278.558v50.231h95.861l-32.527-50.231z" fill="#a4d4ff"></path><g><path d="m81.277 130.917h246.949c0 82.318.002 164.632.002 246.949h-246.951z" fill="#d5a889"></path><path d="m175.735 130.917h58.034v58.033h-58.034z" fill="#efc7a4"></path></g><path d="m486.239 428.401h-404.962c-5.351 0-9.717 4.366-9.717 9.717v14.986c0 5.351 4.365 9.717 9.717 9.717h404.961c5.352 0 9.717-4.365 9.717-9.717v-14.986c.001-5.352-4.366-9.717-9.716-9.717z" fill="#636c77"></path><ellipse cx="394.272" cy="445.611" fill="#424852" rx="43.739" ry="43.739" transform="matrix(.707 -.707 .707 .707 -199.615 409.309)"></ellipse><ellipse cx="394.272" cy="445.611" fill="#e4e8eb" rx="14.835" ry="14.835" transform="matrix(.707 -.707 .707 .707 -199.615 409.309)"></ellipse><ellipse cx="169.397" cy="445.611" fill="#424852" rx="43.739" ry="43.739" transform="matrix(.055 -.999 .999 .055 -284.899 590.107)"></ellipse><circle cx="169.397" cy="445.611" fill="#e4e8eb" r="14.835"></circle></g><g><ellipse cx="417.836" cy="87.469" fill="#fdcd56" rx="64.556" ry="64.556" transform="matrix(.031 -1 1 .031 317.371 502.373)"></ellipse><ellipse cx="417.836" cy="87.47" fill="#f4f6f8" rx="50.556" ry="50.557" transform="matrix(.987 -.16 .16 .987 -8.616 68.059)"></ellipse></g></g><path d="m397.565 108.541 10.493-18.201c-.282-.951-.423-1.962-.423-3.002 0-2.95 1.271-5.599 3.247-7.477v-28.144c0-3.868 3.153-6.997 7.011-6.997 3.859 0 7.012 3.129 7.012 6.997v28.144c1.976 1.877 3.247 4.527 3.247 7.477 0 4.852-3.388 8.931-7.953 9.98l-10.493 18.22c-1.318 2.249-3.67 3.501-6.07 3.501-1.176 0-2.4-.301-3.482-.941-3.388-1.93-4.518-6.212-2.589-9.557zm20.328-78.761c-31.762 0-57.548 25.819-57.548 57.558 0 31.734 25.786 57.553 57.548 57.553 31.716 0 57.549-25.819 57.549-57.553 0-31.739-25.833-57.558-57.549-57.558zm0 129.11c39.432 0 71.571-32.101 71.571-71.552 0-39.46-32.139-71.557-71.571-71.557-39.479 0-71.571 32.096-71.571 71.557 0 39.451 32.092 71.552 71.571 71.552zm-36.326 193.707c0 3.873-3.106 7.002-7.011 7.002h-20.422c-3.858 0-7.011-3.129-7.011-7.002 0-3.868 3.153-6.997 7.011-6.997h20.422c3.905 0 7.011 3.129 7.011 6.997zm-222.148-75.989v12.78l35.432-35.127-35.432-35.132v12.78c0 3.858-3.106 7.002-7.011 7.002h-106.533c-3.906 0-7.011-3.143-7.011-7.002 0-3.873 3.106-7.002 7.011-7.002h99.569v-22.568c0-2.833 1.694-5.383 4.282-6.47 2.635-1.082 5.6-.494 7.623 1.487l52.372 51.93c1.318 1.308 2.07 3.101 2.07 4.974 0 1.868-.753 3.656-2.07 4.964l-52.372 51.921c-1.318 1.331-3.106 2.033-4.941 2.033-.894 0-1.788-.169-2.682-.532-2.588-1.087-4.282-3.638-4.282-6.47v-22.566h-99.569c-3.906 0-7.011-3.134-7.011-7.002s3.106-6.997 7.011-6.997h106.533c3.906 0 7.011 3.129 7.011 6.997zm10.023 176.702c-4.329 0-7.811-3.51-7.811-7.83s3.482-7.839 7.811-7.839 7.858 3.52 7.858 7.839-3.529 7.83-7.858 7.83zm0-29.673c-12.046 0-21.834 9.802-21.834 21.843 0 12.042 9.787 21.829 21.834 21.829 12.046 0 21.834-9.788 21.834-21.829 0-12.042-9.788-21.843-21.834-21.843zm224.877 29.673c-4.329 0-7.811-3.51-7.811-7.83s3.482-7.839 7.811-7.839 7.858 3.52 7.858 7.839-3.529 7.83-7.858 7.83zm0-29.673c-12.046 0-21.834 9.802-21.834 21.843 0 12.042 9.788 21.829 21.834 21.829s21.834-9.788 21.834-21.829c-.001-12.042-9.788-21.843-21.834-21.843zm94.675 29.334c0 1.496-1.223 2.72-2.682 2.72h-42.303c.706-3.303 1.035-6.715 1.035-10.211 0-3.501-.329-6.912-1.035-10.211h42.303c1.459 0 2.682 1.238 2.682 2.72zm-94.675 29.249c20.281 0 36.75-16.479 36.75-36.741s-16.469-36.741-36.75-36.741c-20.234 0-36.75 16.479-36.75 36.741 0 20.263 16.516 36.741 36.75 36.741zm-175.14-26.53c.659-3.303.988-6.715.988-10.211 0-3.501-.329-6.912-.988-10.211h125.449c-.706 3.299-1.035 6.71-1.035 10.211 0 3.496.329 6.908 1.035 10.211zm-49.737 26.53c20.281 0 36.75-16.479 36.75-36.741s-16.469-36.741-36.75-36.741c-20.234 0-36.75 16.479-36.75 36.741 0 20.263 16.516 36.741 36.75 36.741zm-88.135-26.53c-1.459 0-2.682-1.224-2.682-2.72v-14.982c0-1.482 1.223-2.72 2.682-2.72h38.444c-.706 3.299-1.035 6.71-1.035 10.211 0 3.496.329 6.908 1.035 10.211zm239.982-70.959v36.538h-107.239c-8.611-15.792-25.363-26.53-44.608-26.53-19.199 0-35.95 10.738-44.561 26.53h-36.562v-36.538zm101.216-125.322h-87.241v161.861h14.493c8.611-15.792 25.363-26.53 44.561-26.53s35.997 10.738 44.609 26.53h36.515v-61.671h-13.458c-3.859 0-6.964-3.129-6.964-7.002 0-3.868 3.106-6.997 6.964-6.997h13.458v-11.204c0-2.578-.612-4.597-1.976-6.757l-40.514-62.56c-2.401-3.708-6.024-5.67-10.447-5.67zm-195.703-77.589h-43.997v-44.03h43.997zm262.662 239.76c7.67 1.477 13.552 8.268 13.552 16.408v14.982c0 9.218-7.529 16.719-16.704 16.719h-47.384c-8.611 15.792-25.41 26.53-44.609 26.53s-35.95-10.738-44.561-26.53h-135.708c-8.611 15.792-25.363 26.53-44.608 26.53-19.199 0-35.95-10.738-44.561-26.53h-43.574c-9.223 0-16.705-7.501-16.705-16.719v-14.982c0-6.719 4-12.512 9.74-15.161v-95.4h-58.347c-3.859 0-7.011-3.139-7.011-6.997 0-3.872 3.153-7.002 7.011-7.002h58.348v-7.67c0-3.858 3.106-7.002 6.964-7.002 3.906 0 7.011 3.143 7.011 7.002v7.67h32.939c3.906 0 7.011 3.129 7.011 7.002 0 3.859-3.106 6.997-7.011 6.997h-32.938v43.3h232.971v-232.937h-80.465v51.027c0 3.863-3.153 7.002-7.011 7.002h-58.019c-3.859 0-7.011-3.139-7.011-7.002v-51.027h-80.465v43.3h32.939c3.906 0 7.011 3.139 7.011 6.997 0 3.872-3.106 7.002-7.011 7.002h-32.939v7.67c0 3.859-3.106 7.002-7.011 7.002-3.858 0-6.964-3.143-6.964-7.002v-7.67h-58.349c-3.859 0-7.011-3.129-7.011-7.002 0-3.858 3.153-6.997 7.011-6.997h58.348v-50.302c0-3.868 3.106-7.002 6.964-7.002h246.946c3.906 0 7.011 3.134 7.011 7.002v114.622h87.241c9.129 0 17.222 4.4 22.163 12.06l40.514 62.56c2.87 4.409 4.282 9.11 4.282 14.366zm-128.319-136.154h52.514l23.481 36.232h-75.994v-36.232zm-7.011 50.231c-3.858 0-7.011-3.138-7.011-6.997v-50.231c0-3.868 3.153-7.002 7.011-7.002h63.336c2.4 0 4.612 1.204 5.882 3.19l32.515 50.231c1.412 2.16 1.506 4.898.282 7.148-1.223 2.249-3.576 3.661-6.164 3.661z"></path></g></svg>